<svg id="my-svg" width="100%" xmlns="http://www.w3.org/2000/svg" xmlns:xlink="http://www.w3.org/1999/xlink" class="classDiagram" style="max-width: 629.078px; background-color: white;" viewBox="0 0 629.078125 1036" role="graphics-document document" aria-roledescription="class"><style>#my-svg{font-family:"trebuchet ms",verdana,arial,sans-serif;font-size:16px;fill:#333;}@keyframes edge-animation-frame{from{stroke-dashoffset:0;}}@keyframes dash{to{stroke-dashoffset:0;}}#my-svg .edge-animation-slow{stroke-dasharray:9,5!important;stroke-dashoffset:900;animation:dash 50s linear infinite;stroke-linecap:round;}#my-svg .edge-animation-fast{stroke-dasharray:9,5!important;stroke-dashoffset:900;animation:dash 20s linear infinite;stroke-linecap:round;}#my-svg .error-icon{fill:#552222;}#my-svg .error-text{fill:#552222;stroke:#552222;}#my-svg .edge-thickness-normal{stroke-width:1px;}#my-svg .edge-thickness-thick{stroke-width:3.5px;}#my-svg .edge-pattern-solid{stroke-dasharray:0;}#my-svg .edge-thickness-invisible{stroke-width:0;fill:none;}#my-svg .edge-pattern-dashed{stroke-dasharray:3;}#my-svg .edge-pattern-dotted{stroke-dasharray:2;}#my-svg .marker{fill:#333333;stroke:#333333;}#my-svg .marker.cross{stroke:#333333;}#my-svg svg{font-family:"trebuchet ms",verdana,arial,sans-serif;font-size:16px;}#my-svg p{margin:0;}#my-svg g.classGroup text{fill:#9370DB;stroke:none;font-family:"trebuchet ms",verdana,arial,sans-serif;font-size:10px;}#my-svg g.classGroup text .title{font-weight:bolder;}#my-svg .nodeLabel,#my-svg .edgeLabel{color:#131300;}#my-svg .edgeLabel .label rect{fill:#ECECFF;}#my-svg .label text{fill:#131300;}#my-svg .labelBkg{background:#ECECFF;}#my-svg .edgeLabel .label span{background:#ECECFF;}#my-svg .classTitle{font-weight:bolder;}#my-svg .node rect,#my-svg .node circle,#my-svg .node ellipse,#my-svg .node polygon,#my-svg .node path{fill:#ECECFF;stroke:#9370DB;stroke-width:1px;}#my-svg .divider{stroke:#9370DB;stroke-width:1;}#my-svg g.clickable{cursor:pointer;}#my-svg g.classGroup rect{fill:#ECECFF;stroke:#9370DB;}#my-svg g.classGroup line{stroke:#9370DB;stroke-width:1;}#my-svg .classLabel .box{stroke:none;stroke-width:0;fill:#ECECFF;opacity:0.5;}#my-svg .classLabel .label{fill:#9370DB;font-size:10px;}#my-svg .relation{stroke:#333333;stroke-width:1;fill:none;}#my-svg .dashed-line{stroke-dasharray:3;}#my-svg .dotted-line{stroke-dasharray:1 2;}#my-svg #compositionStart,#my-svg .composition{fill:#333333!important;stroke:#333333!important;stroke-width:1;}#my-svg #compositionEnd,#my-svg .composition{fill:#333333!important;stroke:#333333!important;stroke-width:1;}#my-svg #dependencyStart,#my-svg .dependency{fill:#333333!important;stroke:#333333!important;stroke-width:1;}#my-svg #dependencyStart,#my-svg .dependency{fill:#333333!important;stroke:#333333!important;stroke-width:1;}#my-svg #extensionStart,#my-svg .extension{fill:transparent!important;stroke:#333333!important;stroke-width:1;}#my-svg #extensionEnd,#my-svg .extension{fill:transparent!important;stroke:#333333!important;stroke-width:1;}#my-svg #aggregationStart,#my-svg .aggregation{fill:transparent!important;stroke:#333333!important;stroke-width:1;}#my-svg #aggregationEnd,#my-svg .aggregation{fill:transparent!important;stroke:#333333!important;stroke-width:1;}#my-svg #lollipopStart,#my-svg .lollipop{fill:#ECECFF!important;stroke:#333333!important;stroke-width:1;}#my-svg #lollipopEnd,#my-svg .lollipop{fill:#ECECFF!important;stroke:#333333!important;stroke-width:1;}#my-svg .edgeTerminals{font-size:11px;line-height:initial;}#my-svg .classTitleText{text-anchor:middle;font-size:18px;fill:#333;}#my-svg .label-icon{display:inline-block;height:1em;overflow:visible;vertical-align:-0.125em;}#my-svg .node .label-icon path{fill:currentColor;stroke:revert;stroke-width:revert;}#my-svg :root{--mermaid-font-family:"trebuchet ms",verdana,arial,sans-serif;}</style><g><defs><marker id="my-svg_class-aggregationStart" class="marker aggregation class" refX="18" refY="7" markerWidth="190" markerHeight="240" orient="auto"><path d="M 18,7 L9,13 L1,7 L9,1 Z"/></marker></defs><defs><marker id="my-svg_class-aggregationEnd" class="marker aggregation class" refX="1" refY="7" markerWidth="20" markerHeight="28" orient="auto"><path d="M 18,7 L9,13 L1,7 L9,1 Z"/></marker></defs><defs><marker id="my-svg_class-extensionStart" class="marker extension class" refX="18" refY="7" markerWidth="190" markerHeight="240" orient="auto"><path d="M 1,7 L18,13 V 1 Z"/></marker></defs><defs><marker id="my-svg_class-extensionEnd" class="marker extension class" refX="1" refY="7" markerWidth="20" markerHeight="28" orient="auto"><path d="M 1,1 V 13 L18,7 Z"/></marker></defs><defs><marker id="my-svg_class-compositionStart" class="marker composition class" refX="18" refY="7" markerWidth="190" markerHeight="240" orient="auto"><path d="M 18,7 L9,13 L1,7 L9,1 Z"/></marker></defs><defs><marker id="my-svg_class-compositionEnd" class="marker composition class" refX="1" refY="7" markerWidth="20" markerHeight="28" orient="auto"><path d="M 18,7 L9,13 L1,7 L9,1 Z"/></marker></defs><defs><marker id="my-svg_class-dependencyStart" class="marker dependency class" refX="6" refY="7" markerWidth="190" markerHeight="240" orient="auto"><path d="M 5,7 L9,13 L1,7 L9,1 Z"/></marker></defs><defs><marker id="my-svg_class-dependencyEnd" class="marker dependency class" refX="13" refY="7" markerWidth="20" markerHeight="28" orient="auto"><path d="M 18,7 L9,13 L14,7 L9,1 Z"/></marker></defs><defs><marker id="my-svg_class-lollipopStart" class="marker lollipop class" refX="13" refY="7" markerWidth="190" markerHeight="240" orient="auto"><circle stroke="black" fill="transparent" cx="7" cy="7" r="6"/></marker></defs><defs><marker id="my-svg_class-lollipopEnd" class="marker lollipop class" refX="1" refY="7" markerWidth="190" markerHeight="240" orient="auto"><circle stroke="black" fill="transparent" cx="7" cy="7" r="6"/></marker></defs><g class="root"><g class="clusters"/><g class="edgePaths"><path d="M303.836,200L303.836,206.167C303.836,212.333,303.836,224.667,303.836,236C303.836,247.333,303.836,257.667,303.836,262.833L303.836,268" id="id_GreetingController_GreetingService_1" class="edge-thickness-normal edge-pattern-solid relation" style=";;;" data-edge="true" data-et="edge" data-id="id_GreetingController_GreetingService_1" data-points="W3sieCI6MzAzLjgzNTkzNzUsInkiOjIwMH0seyJ4IjozMDMuODM1OTM3NSwieSI6MjM3fSx7IngiOjMwMy44MzU5Mzc1LCJ5IjoyNzR9XQ==" marker-end="url(#my-svg_class-dependencyEnd)"/><path d="M394.941,466L400.793,472.167C406.646,478.333,418.35,490.667,424.202,502C430.055,513.333,430.055,523.667,430.055,528.833L430.055,534" id="id_GreetingService_GreetingRepository_2" class="edge-thickness-normal edge-pattern-solid relation" style=";;;" data-edge="true" data-et="edge" data-id="id_GreetingService_GreetingRepository_2" data-points="W3sieCI6Mzk0Ljk0MTIwMDY1Nzg5NDc0LCJ5Ijo0NjZ9LHsieCI6NDMwLjA1NDY4NzUsInkiOjUwM30seyJ4Ijo0MzAuMDU0Njg3NSwieSI6NTQwfV0=" marker-end="url(#my-svg_class-dependencyEnd)"/><path d="M212.731,466L206.878,472.167C201.026,478.333,189.322,490.667,183.469,517.5C177.617,544.333,177.617,585.667,177.617,627C177.617,668.333,177.617,709.667,181.948,735.721C186.279,761.775,194.941,772.549,199.273,777.936L203.604,783.324" id="id_GreetingService_Greeting_3" class="edge-thickness-normal edge-pattern-solid relation" style=";;;" data-edge="true" data-et="edge" data-id="id_GreetingService_Greeting_3" data-points="W3sieCI6MjEyLjczMDY3NDM0MjEwNTI2LCJ5Ijo0NjZ9LHsieCI6MTc3LjYxNzE4NzUsInkiOjUwM30seyJ4IjoxNzcuNjE3MTg3NSwieSI6NjI3fSx7IngiOjE3Ny42MTcxODc1LCJ5Ijo3NTF9LHsieCI6MjA3LjM2MzAwNzU2MzY5NDI4LCJ5Ijo3ODh9XQ==" marker-end="url(#my-svg_class-dependencyEnd)"/><path d="M430.055,714L430.055,720.167C430.055,726.333,430.055,738.667,425.724,750.221C421.393,761.775,412.73,772.549,408.399,777.936L404.068,783.324" id="id_GreetingRepository_Greeting_4" class="edge-thickness-normal edge-pattern-solid relation" style=";;;" data-edge="true" data-et="edge" data-id="id_GreetingRepository_Greeting_4" data-points="W3sieCI6NDMwLjA1NDY4NzUsInkiOjcxNH0seyJ4Ijo0MzAuMDU0Njg3NSwieSI6NzUxfSx7IngiOjQwMC4zMDg4Njc0MzYzMDU3LCJ5Ijo3ODh9XQ==" marker-end="url(#my-svg_class-dependencyEnd)"/></g><g class="edgeLabels"><g class="edgeLabel" transform="translate(303.8359375, 237)"><g class="label" data-id="id_GreetingController_GreetingService_1" transform="translate(-15.2109375, -12)"><foreignObject width="30.421875" height="24"><div xmlns="http://www.w3.org/1999/xhtml" class="labelBkg" style="display: table-cell; white-space: nowrap; line-height: 1.5; max-width: 200px; text-align: center;"><span class="edgeLabel"><p>uses</p></span></div></foreignObject></g></g><g class="edgeLabel" transform="translate(430.0546875, 503)"><g class="label" data-id="id_GreetingService_GreetingRepository_2" transform="translate(-15.2109375, -12)"><foreignObject width="30.421875" height="24"><div xmlns="http://www.w3.org/1999/xhtml" class="labelBkg" style="display: table-cell; white-space: nowrap; line-height: 1.5; max-width: 200px; text-align: center;"><span class="edgeLabel"><p>uses</p></span></div></foreignObject></g></g><g class="edgeLabel" transform="translate(177.6171875, 627)"><g class="label" data-id="id_GreetingService_Greeting_3" transform="translate(-26.4140625, -12)"><foreignObject width="52.828125" height="24"><div xmlns="http://www.w3.org/1999/xhtml" class="labelBkg" style="display: table-cell; white-space: nowrap; line-height: 1.5; max-width: 200px; text-align: center;"><span class="edgeLabel"><p>creates</p></span></div></foreignObject></g></g><g class="edgeLabel" transform="translate(430.0546875, 751)"><g class="label" data-id="id_GreetingRepository_Greeting_4" transform="translate(-31.0390625, -12)"><foreignObject width="62.078125" height="24"><div xmlns="http://www.w3.org/1999/xhtml" class="labelBkg" style="display: table-cell; white-space: nowrap; line-height: 1.5; max-width: 200px; text-align: center;"><span class="edgeLabel"><p>manages</p></span></div></foreignObject></g></g></g><g class="nodes"><g class="node default" id="classId-GreetingController-0" transform="translate(303.8359375, 104)"><g class="basic label-container"><path d="M-295.8359375 -96 L295.8359375 -96 L295.8359375 96 L-295.8359375 96" stroke="none" stroke-width="0" fill="#ECECFF" style=""/><path d="M-295.8359375 -96 C-116.55760683764564 -96, 62.72072382470873 -96, 295.8359375 -96 M-295.8359375 -96 C-124.31382458961329 -96, 47.20828832077342 -96, 295.8359375 -96 M295.8359375 -96 C295.8359375 -50.09906812870902, 295.8359375 -4.198136257418042, 295.8359375 96 M295.8359375 -96 C295.8359375 -47.46179582603166, 295.8359375 1.0764083479366775, 295.8359375 96 M295.8359375 96 C108.24231769501179 96, -79.35130210997642 96, -295.8359375 96 M295.8359375 96 C102.98838877888343 96, -89.85915994223313 96, -295.8359375 96 M-295.8359375 96 C-295.8359375 47.35066225208169, -295.8359375 -1.2986754958366191, -295.8359375 -96 M-295.8359375 96 C-295.8359375 33.348183532723525, -295.8359375 -29.30363293455295, -295.8359375 -96" stroke="#9370DB" stroke-width="1.3" fill="none" stroke-dasharray="0 0" style=""/></g><g class="annotation-group text" transform="translate(0, -72)"/><g class="label-group text" transform="translate(-70.28125, -72)"><g class="label" style="font-weight: bolder" transform="translate(0,-12)"><foreignObject width="140.5625" height="24"><div xmlns="http://www.w3.org/1999/xhtml" style="display: table-cell; white-space: nowrap; line-height: 1.5; max-width: 172px; text-align: center;"><span class="nodeLabel markdown-node-label" style=""><p>GreetingController</p></span></div></foreignObject></g></g><g class="members-group text" transform="translate(-283.8359375, -24)"><g class="label" style="" transform="translate(0,-12)"><foreignObject width="235.625" height="24"><div xmlns="http://www.w3.org/1999/xhtml" style="display: table-cell; white-space: nowrap; line-height: 1.5; max-width: 268px; text-align: center;"><span class="nodeLabel markdown-node-label" style=""><p>-GreetingService greetingService</p></span></div></foreignObject></g></g><g class="methods-group text" transform="translate(-283.8359375, 24)"><g class="label" style="" transform="translate(0,-12)"><foreignObject width="316.03125" height="24"><div xmlns="http://www.w3.org/1999/xhtml" style="display: table-cell; white-space: nowrap; line-height: 1.5; max-width: 386px; text-align: center;"><span class="nodeLabel markdown-node-label" style=""><p>+getAllGreetings() : List&lt;GreetingResponse&gt;</p></span></div></foreignObject></g><g class="label" style="" transform="translate(0,12)"><foreignObject width="455.03125" height="24"><div xmlns="http://www.w3.org/1999/xhtml" style="display: table-cell; white-space: nowrap; line-height: 1.5; max-width: 517px; text-align: center;"><span class="nodeLabel markdown-node-label" style=""><p>+getGreetingById(Long id) : ResponseEntity&lt;GreetingResponse&gt;</p></span></div></foreignObject></g><g class="label" style="" transform="translate(0,36)"><foreignObject width="497.390625" height="24"><div xmlns="http://www.w3.org/1999/xhtml" style="display: table-cell; white-space: nowrap; line-height: 1.5; max-width: 498px; text-align: center;"><span class="nodeLabel markdown-node-label" style=""><p>+createGreeting(CreateGreetingRequest request) : GreetingResponse</p></span></div></foreignObject></g></g><g class="divider" style=""><path d="M-295.8359375 -48 C-127.78190182266977 -48, 40.27213385466047 -48, 295.8359375 -48 M-295.8359375 -48 C-124.8520995237215 -48, 46.13173845255699 -48, 295.8359375 -48" stroke="#9370DB" stroke-width="1.3" fill="none" stroke-dasharray="0 0" style=""/></g><g class="divider" style=""><path d="M-295.8359375 0 C-116.62288803053937 0, 62.59016143892126 0, 295.8359375 0 M-295.8359375 0 C-91.17662067283723 0, 113.48269615432554 0, 295.8359375 0" stroke="#9370DB" stroke-width="1.3" fill="none" stroke-dasharray="0 0" style=""/></g></g><g class="node default" id="classId-GreetingService-1" transform="translate(303.8359375, 370)"><g class="basic label-container"><path d="M-226.921875 -96 L226.921875 -96 L226.921875 96 L-226.921875 96" stroke="none" stroke-width="0" fill="#ECECFF" style=""/><path d="M-226.921875 -96 C-69.38386987803565 -96, 88.15413524392869 -96, 226.921875 -96 M-226.921875 -96 C-54.28690356966831 -96, 118.34806786066338 -96, 226.921875 -96 M226.921875 -96 C226.921875 -55.751163632772816, 226.921875 -15.502327265545631, 226.921875 96 M226.921875 -96 C226.921875 -45.118304354933144, 226.921875 5.763391290133711, 226.921875 96 M226.921875 96 C92.92882791581627 96, -41.06421916836746 96, -226.921875 96 M226.921875 96 C118.44182456136629 96, 9.961774122732578 96, -226.921875 96 M-226.921875 96 C-226.921875 55.328627772096304, -226.921875 14.657255544192608, -226.921875 -96 M-226.921875 96 C-226.921875 51.46941273098868, -226.921875 6.938825461977359, -226.921875 -96" stroke="#9370DB" stroke-width="1.3" fill="none" stroke-dasharray="0 0" style=""/></g><g class="annotation-group text" transform="translate(0, -72)"/><g class="label-group text" transform="translate(-59.9375, -72)"><g class="label" style="font-weight: bolder" transform="translate(0,-12)"><foreignObject width="119.875" height="24"><div xmlns="http://www.w3.org/1999/xhtml" style="display: table-cell; white-space: nowrap; line-height: 1.5; max-width: 154px; text-align: center;"><span class="nodeLabel markdown-node-label" style=""><p>GreetingService</p></span></div></foreignObject></g></g><g class="members-group text" transform="translate(-214.921875, -24)"><g class="label" style="" transform="translate(0,-12)"><foreignObject width="220.359375" height="24"><div xmlns="http://www.w3.org/1999/xhtml" style="display: table-cell; white-space: nowrap; line-height: 1.5; max-width: 255px; text-align: center;"><span class="nodeLabel markdown-node-label" style=""><p>-GreetingRepository repository</p></span></div></foreignObject></g></g><g class="methods-group text" transform="translate(-214.921875, 24)"><g class="label" style="" transform="translate(0,-12)"><foreignObject width="187.109375" height="24"><div xmlns="http://www.w3.org/1999/xhtml" style="display: table-cell; white-space: nowrap; line-height: 1.5; max-width: 269px; text-align: center;"><span class="nodeLabel markdown-node-label" style=""><p>+findAll() : List&lt;Greeting&gt;</p></span></div></foreignObject></g><g class="label" style="" transform="translate(0,12)"><foreignObject width="285.875" height="24"><div xmlns="http://www.w3.org/1999/xhtml" style="display: table-cell; white-space: nowrap; line-height: 1.5; max-width: 362px; text-align: center;"><span class="nodeLabel markdown-node-label" style=""><p>+findById(Long id) : Optional&lt;Greeting&gt;</p></span></div></foreignObject></g><g class="label" style="" transform="translate(0,36)"><foreignObject width="369.90625" height="24"><div xmlns="http://www.w3.org/1999/xhtml" style="display: table-cell; white-space: nowrap; line-height: 1.5; max-width: 380px; text-align: center;"><span class="nodeLabel markdown-node-label" style=""><p>+create(CreateGreetingRequest request) : Greeting</p></span></div></foreignObject></g></g><g class="divider" style=""><path d="M-226.921875 -48 C-61.05086052615397 -48, 104.82015394769206 -48, 226.921875 -48 M-226.921875 -48 C-95.9564230180294 -48, 35.009028963941205 -48, 226.921875 -48" stroke="#9370DB" stroke-width="1.3" fill="none" stroke-dasharray="0 0" style=""/></g><g class="divider" style=""><path d="M-226.921875 0 C-80.46579169642689 0, 65.99029160714622 0, 226.921875 0 M-226.921875 0 C-112.13653321411434 0, 2.648808571771326 0, 226.921875 0" stroke="#9370DB" stroke-width="1.3" fill="none" stroke-dasharray="0 0" style=""/></g></g><g class="node default" id="classId-GreetingRepository-2" transform="translate(430.0546875, 627)"><g class="basic label-container"><path d="M-191.0234375 -87 L191.0234375 -87 L191.0234375 87 L-191.0234375 87" stroke="none" stroke-width="0" fill="#ECECFF" style=""/><path d="M-191.0234375 -87 C-102.3577911265986 -87, -13.692144753197198 -87, 191.0234375 -87 M-191.0234375 -87 C-98.43642202670955 -87, -5.849406553419101 -87, 191.0234375 -87 M191.0234375 -87 C191.0234375 -32.505222212522796, 191.0234375 21.98955557495441, 191.0234375 87 M191.0234375 -87 C191.0234375 -40.701717867894914, 191.0234375 5.596564264210173, 191.0234375 87 M191.0234375 87 C100.1925287150412 87, 9.361619930082412 87, -191.0234375 87 M191.0234375 87 C113.56890676984568 87, 36.114376039691365 87, -191.0234375 87 M-191.0234375 87 C-191.0234375 21.55795136521364, -191.0234375 -43.88409726957272, -191.0234375 -87 M-191.0234375 87 C-191.0234375 33.0644387260012, -191.0234375 -20.8711225479976, -191.0234375 -87" stroke="#9370DB" stroke-width="1.3" fill="none" stroke-dasharray="0 0" style=""/></g><g class="annotation-group text" transform="translate(0, -63)"/><g class="label-group text" transform="translate(-72.171875, -63)"><g class="label" style="font-weight: bolder" transform="translate(0,-12)"><foreignObject width="144.34375" height="24"><div xmlns="http://www.w3.org/1999/xhtml" style="display: table-cell; white-space: nowrap; line-height: 1.5; max-width: 176px; text-align: center;"><span class="nodeLabel markdown-node-label" style=""><p>GreetingRepository</p></span></div></foreignObject></g></g><g class="members-group text" transform="translate(-179.0234375, -15)"/><g class="methods-group text" transform="translate(-179.0234375, 15)"><g class="label" style="" transform="translate(0,-12)"><foreignObject width="285.875" height="24"><div xmlns="http://www.w3.org/1999/xhtml" style="display: table-cell; white-space: nowrap; line-height: 1.5; max-width: 362px; text-align: center;"><span class="nodeLabel markdown-node-label" style=""><p>+findById(Long id) : Optional&lt;Greeting&gt;</p></span></div></foreignObject></g><g class="label" style="" transform="translate(0,12)"><foreignObject width="238.875" height="24"><div xmlns="http://www.w3.org/1999/xhtml" style="display: table-cell; white-space: nowrap; line-height: 1.5; max-width: 267px; text-align: center;"><span class="nodeLabel markdown-node-label" style=""><p>+save(Greeting entity) : Greeting</p></span></div></foreignObject></g><g class="label" style="" transform="translate(0,36)"><foreignObject width="187.109375" height="24"><div xmlns="http://www.w3.org/1999/xhtml" style="display: table-cell; white-space: nowrap; line-height: 1.5; max-width: 269px; text-align: center;"><span class="nodeLabel markdown-node-label" style=""><p>+findAll() : List&lt;Greeting&gt;</p></span></div></foreignObject></g></g><g class="divider" style=""><path d="M-191.0234375 -39 C-41.219484792567044 -39, 108.58446791486591 -39, 191.0234375 -39 M-191.0234375 -39 C-45.51391703164373 -39, 99.99560343671254 -39, 191.0234375 -39" stroke="#9370DB" stroke-width="1.3" fill="none" stroke-dasharray="0 0" style=""/></g><g class="divider" style=""><path d="M-191.0234375 -15 C-96.67225962697671 -15, -2.321081753953422 -15, 191.0234375 -15 M-191.0234375 -15 C-41.48856523149925 -15, 108.0463070370015 -15, 191.0234375 -15" stroke="#9370DB" stroke-width="1.3" fill="none" stroke-dasharray="0 0" style=""/></g></g><g class="node default" id="classId-Greeting-3" transform="translate(303.8359375, 908)"><g class="basic label-container"><path d="M-111.9140625 -120 L111.9140625 -120 L111.9140625 120 L-111.9140625 120" stroke="none" stroke-width="0" fill="#ECECFF" style=""/><path d="M-111.9140625 -120 C-48.64643168544631 -120, 14.621199129107382 -120, 111.9140625 -120 M-111.9140625 -120 C-36.21506542005075 -120, 39.4839316598985 -120, 111.9140625 -120 M111.9140625 -120 C111.9140625 -41.738270519176425, 111.9140625 36.52345896164715, 111.9140625 120 M111.9140625 -120 C111.9140625 -43.85396335867293, 111.9140625 32.292073282654144, 111.9140625 120 M111.9140625 120 C42.894268327888625 120, -26.12552584422275 120, -111.9140625 120 M111.9140625 120 C62.150803590491606 120, 12.387544680983211 120, -111.9140625 120 M-111.9140625 120 C-111.9140625 45.72151855449307, -111.9140625 -28.556962891013853, -111.9140625 -120 M-111.9140625 120 C-111.9140625 27.76824267761505, -111.9140625 -64.4635146447699, -111.9140625 -120" stroke="#9370DB" stroke-width="1.3" fill="none" stroke-dasharray="0 0" style=""/></g><g class="annotation-group text" transform="translate(0, -96)"/><g class="label-group text" transform="translate(-32.28125, -96)"><g class="label" style="font-weight: bolder" transform="translate(0,-12)"><foreignObject width="64.5625" height="24"><div xmlns="http://www.w3.org/1999/xhtml" style="display: table-cell; white-space: nowrap; line-height: 1.5; max-width: 106px; text-align: center;"><span class="nodeLabel markdown-node-label" style=""><p>Greeting</p></span></div></foreignObject></g></g><g class="members-group text" transform="translate(-99.9140625, -48)"><g class="label" style="" transform="translate(0,-12)"><foreignObject width="57.640625" height="24"><div xmlns="http://www.w3.org/1999/xhtml" style="display: table-cell; white-space: nowrap; line-height: 1.5; max-width: 110px; text-align: center;"><span class="nodeLabel markdown-node-label" style=""><p>-Long id</p></span></div></foreignObject></g><g class="label" style="" transform="translate(0,12)"><foreignObject width="112.421875" height="24"><div xmlns="http://www.w3.org/1999/xhtml" style="display: table-cell; white-space: nowrap; line-height: 1.5; max-width: 157px; text-align: center;"><span class="nodeLabel markdown-node-label" style=""><p>-String message</p></span></div></foreignObject></g><g class="label" style="" transform="translate(0,36)"><foreignObject width="116.09375" height="24"><div xmlns="http://www.w3.org/1999/xhtml" style="display: table-cell; white-space: nowrap; line-height: 1.5; max-width: 161px; text-align: center;"><span class="nodeLabel markdown-node-label" style=""><p>-String language</p></span></div></foreignObject></g></g><g class="methods-group text" transform="translate(-99.9140625, 48)"><g class="label" style="" transform="translate(0,-12)"><foreignObject width="105.59375" height="24"><div xmlns="http://www.w3.org/1999/xhtml" style="display: table-cell; white-space: nowrap; line-height: 1.5; max-width: 153px; text-align: center;"><span class="nodeLabel markdown-node-label" style=""><p>+getId() : Long</p></span></div></foreignObject></g><g class="label" style="" transform="translate(0,12)"><foreignObject width="158.546875" height="24"><div xmlns="http://www.w3.org/1999/xhtml" style="display: table-cell; white-space: nowrap; line-height: 1.5; max-width: 201px; text-align: center;"><span class="nodeLabel markdown-node-label" style=""><p>+getMessage() : String</p></span></div></foreignObject></g><g class="label" style="" transform="translate(0,36)"><foreignObject width="167.546875" height="24"><div xmlns="http://www.w3.org/1999/xhtml" style="display: table-cell; white-space: nowrap; line-height: 1.5; max-width: 208px; text-align: center;"><span class="nodeLabel markdown-node-label" style=""><p>+getLanguage() : String</p></span></div></foreignObject></g></g><g class="divider" style=""><path d="M-111.9140625 -72 C-26.18375789124667 -72, 59.54654671750666 -72, 111.9140625 -72 M-111.9140625 -72 C-34.06963156509532 -72, 43.77479936980936 -72, 111.9140625 -72" stroke="#9370DB" stroke-width="1.3" fill="none" stroke-dasharray="0 0" style=""/></g><g class="divider" style=""><path d="M-111.9140625 24 C-32.114028260873724 24, 47.68600597825255 24, 111.9140625 24 M-111.9140625 24 C-35.06371388958598 24, 41.78663472082803 24, 111.9140625 24" stroke="#9370DB" stroke-width="1.3" fill="none" stroke-dasharray="0 0" style=""/></g></g></g></g></g></svg>